<svg version="1.1" id="Layer_1" xmlns="http://www.w3.org/2000/svg" xmlns:xlink="http://www.w3.org/1999/xlink" x="0px" y="0px"
	 width="100%" viewBox="0 0 2000 1500" enable-background="new 0 0 2000 1500" xml:space="preserve">
<path fill="#FFFFFF" opacity="1.000000" stroke="none" 
	d="
M1057.000000,1501.000000 
	C704.666748,1501.000000 352.833557,1501.000000 1.000236,1501.000000 
	C1.000157,1001.000244 1.000157,501.000519 1.000079,1.000571 
	C667.666199,1.000381 1334.332397,1.000381 2000.999023,1.000190 
	C2000.999268,500.999390 2000.999268,1000.998779 2000.999634,1500.999023 
	C1686.500000,1501.000000 1372.000000,1501.000000 1057.000000,1501.000000 
M1400.267456,688.500122 
	C1400.267456,617.403198 1400.267456,546.306274 1400.267456,475.192383 
	C1133.804321,475.192383 867.817200,475.192383 601.970215,475.192383 
	C601.970215,658.974060 601.970215,842.381836 601.970215,1025.807739 
	C868.195496,1025.807739 1134.182861,1025.807739 1400.267456,1025.807739 
	C1400.267456,913.456238 1400.267456,801.478210 1400.267456,688.500122 
M1128.360474,1124.058716 
	C1061.317871,1146.980469 992.951721,1151.484131 923.581360,1137.598877 
	C856.693298,1124.210449 797.322388,1094.965210 745.649475,1050.346924 
	C742.301331,1047.455811 739.066956,1046.612915 733.862976,1047.770386 
	C819.165466,1121.351196 916.964172,1156.028687 1028.591675,1148.753784 
	C1119.525513,1142.827515 1198.956299,1108.315308 1266.838135,1047.270752 
	C1263.305054,1047.512085 1259.514404,1047.984863 1257.097778,1050.058716 
	C1219.056519,1082.704712 1176.440552,1107.338867 1128.360474,1124.058716 
M980.864624,356.102936 
	C1012.091003,354.777649 1043.131958,356.469635 1073.846191,362.408173 
	C1142.397461,375.662323 1203.285645,404.918365 1256.235596,450.482025 
	C1259.575317,453.355804 1262.815186,454.430817 1268.159180,453.235718 
	C1182.833984,379.550049 1084.930908,344.897980 973.173340,352.251770 
	C882.305603,358.230957 802.939697,392.730286 734.098511,453.302643 
	C739.642761,454.716125 742.973755,452.895081 746.372375,450.001068 
	C813.730347,392.643799 891.731934,361.686554 980.864624,356.102936 
z"/>
<path fill="#000000" opacity="1.000000" stroke="none" 
	d="
M1400.267456,689.000183 
	C1400.267456,801.478210 1400.267456,913.456238 1400.267456,1025.807739 
	C1134.182861,1025.807739 868.195496,1025.807739 601.970215,1025.807739 
	C601.970215,842.381836 601.970215,658.974060 601.970215,475.192383 
	C867.817200,475.192383 1133.804321,475.192383 1400.267456,475.192383 
	C1400.267456,546.306274 1400.267456,617.403198 1400.267456,689.000183 
M1389.886353,600.500000 
	C1389.886353,562.223511 1389.886353,523.947021 1389.886353,485.620667 
	C1130.334717,485.620667 871.316711,485.620667 612.383301,485.620667 
	C612.383301,662.463135 612.383301,838.895691 612.383301,1015.378967 
	C871.667847,1015.378967 1130.685669,1015.378967 1389.886353,1015.378967 
	C1389.886353,877.145935 1389.886353,739.322937 1389.886353,600.500000 
z"/>
<path fill="#0D0D0D" opacity="1.000000" stroke="none" 
	d="
M1128.746582,1123.970093 
	C1176.440552,1107.338867 1219.056519,1082.704712 1257.097778,1050.058716 
	C1259.514404,1047.984863 1263.305054,1047.512085 1266.838135,1047.270752 
	C1198.956299,1108.315308 1119.525513,1142.827515 1028.591675,1148.753784 
	C916.964172,1156.028687 819.165466,1121.351196 733.862976,1047.770386 
	C739.066956,1046.612915 742.301331,1047.455811 745.649475,1050.346924 
	C797.322388,1094.965210 856.693298,1124.210449 923.581360,1137.598877 
	C992.951721,1151.484131 1061.317871,1146.980469 1128.746582,1123.970093 
z"/>
<path fill="#0D0D0D" opacity="1.000000" stroke="none" 
	d="
M980.396667,356.121582 
	C891.731934,361.686554 813.730347,392.643799 746.372375,450.001068 
	C742.973755,452.895081 739.642761,454.716125 734.098511,453.302643 
	C802.939697,392.730286 882.305603,358.230957 973.173340,352.251770 
	C1084.930908,344.897980 1182.833984,379.550049 1268.159180,453.235718 
	C1262.815186,454.430817 1259.575317,453.355804 1256.235596,450.482025 
	C1203.285645,404.918365 1142.397461,375.662323 1073.846191,362.408173 
	C1043.131958,356.469635 1012.091003,354.777649 980.396667,356.121582 
z"/>
<path fill="#FCFCFC" opacity="1.000000" stroke="none" 
	d="
M1389.886353,601.000000 
	C1389.886353,739.322937 1389.886353,877.145935 1389.886353,1015.378967 
	C1130.685669,1015.378967 871.667847,1015.378967 612.383301,1015.378967 
	C612.383301,838.895691 612.383301,662.463135 612.383301,485.620667 
	C871.316711,485.620667 1130.334717,485.620667 1389.886353,485.620667 
	C1389.886353,523.947021 1389.886353,562.223511 1389.886353,601.000000 
M878.500183,506.344025 
	C796.891663,506.344025 715.283081,506.344025 633.451538,506.344025 
	C633.451538,669.309753 633.451538,831.701965 633.451538,994.369507 
	C878.566589,994.369507 1123.443237,994.369507 1368.544922,994.369507 
	C1368.544922,831.690674 1368.544922,669.298279 1368.544922,506.344025 
	C1205.371826,506.344025 1042.436035,506.344025 878.500183,506.344025 
z"/>
<path fill="#020202" opacity="1.000000" stroke="none" 
	d="
M879.000244,506.344025 
	C1042.436035,506.344025 1205.371826,506.344025 1368.544922,506.344025 
	C1368.544922,669.298279 1368.544922,831.690674 1368.544922,994.369507 
	C1123.443237,994.369507 878.566589,994.369507 633.451538,994.369507 
	C633.451538,831.701965 633.451538,669.309753 633.451538,506.344025 
	C715.283081,506.344025 796.891663,506.344025 879.000244,506.344025 
M1243.825928,670.854492 
	C1243.693726,670.745911 1243.561401,670.637268 1243.395996,669.693420 
	C1244.549194,662.124512 1245.957764,654.583191 1246.780396,646.978516 
	C1247.530884,640.040710 1248.177490,633.014954 1247.925781,626.062134 
	C1247.468994,613.448364 1239.724731,609.440491 1228.606079,615.576660 
	C1228.169189,615.817688 1227.702026,616.017822 1227.302124,616.309875 
	C1212.227051,627.321228 1201.606812,641.730591 1195.099243,659.140259 
	C1194.085327,661.852905 1192.220581,665.669556 1196.098389,667.432007 
	C1197.015991,667.849060 1200.171265,664.443115 1201.642456,662.338135 
	C1206.301514,655.672058 1210.456421,648.648315 1215.232178,642.072083 
	C1216.759888,639.968445 1219.613770,638.827881 1221.860962,637.246643 
	C1222.423950,637.637268 1222.987061,638.027893 1223.550049,638.418518 
	C1223.301025,642.841187 1223.419678,647.320740 1222.745728,651.677734 
	C1216.365845,692.919067 1211.588501,734.467041 1199.782104,774.690552 
	C1198.620239,778.649231 1200.267456,779.588135 1203.668579,779.118469 
	C1205.296265,778.893616 1207.031860,778.618896 1208.453125,777.865845 
	C1219.011230,772.272522 1227.188232,764.649719 1229.504150,752.259277 
	C1230.696045,745.882324 1231.961548,739.516174 1232.995483,733.113098 
	C1237.485596,705.309753 1248.230103,680.117249 1265.411133,657.895935 
	C1270.197510,651.705383 1276.270752,645.986023 1282.879517,641.848572 
	C1293.300537,635.324341 1299.526611,639.151367 1297.966431,651.098816 
	C1295.428101,670.537292 1291.512573,689.791809 1288.475830,709.170593 
	C1285.749878,726.566650 1282.319336,743.957336 1281.238647,761.476135 
	C1280.188354,778.502869 1291.106567,784.117554 1305.947998,775.362732 
	C1320.286987,766.904297 1329.997070,754.539001 1335.042969,738.680786 
	C1336.184814,735.092285 1336.586060,731.216736 1336.883423,727.438354 
	C1336.989136,726.094604 1335.774902,724.647034 1335.163086,723.246826 
	C1334.038818,724.282227 1332.537720,725.115479 1331.855225,726.387878 
	C1328.795654,732.091431 1326.289185,738.113892 1322.944702,743.634644 
	C1320.748047,747.260925 1317.748657,750.558105 1314.534546,753.339172 
	C1313.108643,754.573059 1309.634766,755.151672 1308.227539,754.251099 
	C1306.563477,753.185974 1305.462891,750.244568 1305.319580,748.038513 
	C1305.119019,744.945496 1305.902588,741.757568 1306.479492,738.650024 
	C1311.792480,710.031982 1317.421265,681.468689 1322.338013,652.783142 
	C1323.867432,643.859985 1324.258667,634.573792 1323.795532,625.524170 
	C1323.335083,616.526245 1317.490967,612.031860 1308.545166,613.113708 
	C1303.569336,613.715393 1298.056396,615.050598 1294.102173,617.889404 
	C1284.698120,624.640564 1275.165527,631.644470 1267.383179,640.107849 
	C1258.682007,649.570435 1251.855103,660.756409 1243.825928,670.854492 
M719.251831,847.984436 
	C736.953064,846.436157 751.151550,838.143677 762.751282,825.089539 
	C780.158875,805.499390 790.002197,781.946045 794.765991,756.765198 
	C802.432678,716.239563 808.427856,675.395630 814.980652,634.662231 
	C819.103760,609.032715 822.824646,583.338257 827.021667,557.721313 
	C828.073486,551.301086 830.264282,545.067444 832.026672,538.387756 
	C818.972595,542.716980 806.155151,541.734314 793.431763,540.423889 
	C776.181030,538.647156 759.016357,536.574646 741.704285,539.950012 
	C722.723938,543.650574 710.797974,554.055359 707.350891,570.887512 
	C706.813293,573.512512 707.700500,576.429321 707.928833,579.211182 
	C710.207886,577.815369 712.948303,576.844299 714.689697,574.953369 
	C724.554016,564.241821 736.342163,557.398926 751.156372,558.459656 
	C767.650696,559.640625 784.065369,561.934326 800.667358,563.760437 
	C800.060425,567.534424 799.578735,570.490295 799.110107,573.448303 
	C789.059937,636.888306 779.173828,700.355042 768.849915,763.750488 
	C766.208496,779.970398 762.690125,796.150024 754.682373,810.809753 
	C746.057617,826.598938 731.528381,832.623779 714.144043,828.026245 
	C707.317505,826.220764 701.932251,822.414734 699.200928,815.888123 
	C696.713379,809.943726 694.726074,803.744446 693.074829,797.510132 
	C691.739136,792.466980 691.231323,787.204529 690.308289,781.756104 
	C682.918823,782.679993 677.530151,786.346375 672.613708,790.943726 
	C665.450256,797.642212 663.283630,805.707825 666.270630,815.024048 
	C669.182373,824.105530 674.215332,831.763916 681.720337,837.821167 
	C692.486877,846.510742 704.938721,848.833557 719.251831,847.984436 
M839.107361,742.593262 
	C840.130920,751.141785 840.213440,759.943054 842.423767,768.172852 
	C845.004150,777.780701 853.007324,781.645569 862.442078,778.227112 
	C868.873901,775.896790 875.153564,772.352966 880.562378,768.144958 
	C895.448120,756.563904 906.756287,741.710510 916.867432,725.921204 
	C918.796631,722.908508 920.667603,719.858459 922.565430,716.825623 
	C922.131958,724.283325 920.755859,731.382324 919.371765,738.479675 
	C917.330322,748.947693 915.059570,759.436401 917.875183,770.095642 
	C919.873413,777.660278 924.468628,780.474976 932.082581,778.891846 
	C934.481384,778.393066 936.932068,777.489746 939.010315,776.206848 
	C956.794128,765.228882 967.996704,749.639832 971.473450,728.856506 
	C971.781921,727.012634 971.054688,724.995605 970.808533,723.058960 
	C970.194031,722.947266 969.579529,722.835571 968.965027,722.723877 
	C967.606201,725.048462 966.294373,727.402161 964.879700,729.692261 
	C960.445129,736.870972 956.288269,744.258728 951.302429,751.034668 
	C949.970459,752.844788 945.859192,753.691406 943.410156,753.169067 
	C942.063843,752.881897 941.050415,748.882263 940.742676,746.448242 
	C940.394226,743.691895 940.745361,740.768127 941.240906,737.997375 
	C943.583374,724.900757 945.918396,711.798950 948.553955,698.759277 
	C954.043884,671.597229 959.721802,644.473145 965.350098,617.199585 
	C964.942810,616.974426 964.397461,616.572693 963.786621,616.355530 
	C962.379517,615.855652 960.961670,615.356323 959.511353,615.012085 
	C935.576965,609.331238 913.701233,614.240845 894.638672,629.361206 
	C858.597107,657.949341 842.010681,696.481750 839.107361,742.593262 
M1025.080078,634.003235 
	C1025.984009,634.107666 1026.888062,634.212097 1027.918335,634.331177 
	C1022.978882,665.069214 1017.807068,695.410278 1013.362976,725.857544 
	C1011.690063,737.319153 1010.905334,749.044800 1011.164246,760.617676 
	C1011.444580,773.145081 1018.016968,779.403870 1028.775391,779.133301 
	C1032.339722,779.043640 1036.177612,778.356934 1039.366455,776.840820 
	C1052.237427,770.721436 1061.223755,760.739014 1066.398315,747.484924 
	C1067.729370,744.075623 1068.816040,740.319885 1065.975952,735.815674 
	C1064.431396,738.176819 1063.214844,739.834290 1062.208252,741.610718 
	C1058.357056,748.407166 1053.578247,754.356140 1046.308960,757.643372 
	C1039.494629,760.724792 1034.509033,757.807495 1034.057373,750.490601 
	C1033.813110,746.533325 1034.007446,742.475952 1034.596191,738.552673 
	C1037.312012,720.455505 1040.209717,702.385437 1043.093018,684.313782 
	C1045.758057,667.611694 1048.487671,650.919861 1051.224365,634.002930 
	C1054.364746,634.002930 1057.253296,633.586914 1059.979126,634.076416 
	C1070.619873,635.987244 1078.232666,630.793152 1084.999512,623.694763 
	C1086.616455,621.998535 1087.525635,619.627441 1088.760254,617.566711 
	C1086.457886,617.084839 1084.161865,616.226135 1081.852051,616.187134 
	C1072.454346,616.028442 1063.052368,616.121094 1052.249023,616.121094 
	C1056.242676,598.928406 1060.012817,582.697937 1063.915161,565.898071 
	C1062.163696,566.132996 1059.644775,566.010315 1057.488647,566.835510 
	C1044.517334,571.800537 1036.546143,581.119751 1034.050903,594.868103 
	C1032.783325,601.852173 1031.758057,608.880249 1030.670898,615.594421 
	C1022.444214,616.115173 1014.215881,615.158508 1007.075378,617.507996 
	C1000.083496,619.808411 993.722351,625.051086 991.168762,634.002930 
	C1002.870178,634.002930 1013.511963,634.002930 1025.080078,634.003235 
M1132.933960,776.628235 
	C1137.603516,772.912720 1142.727783,769.638794 1146.851318,765.392822 
	C1156.434692,755.524536 1164.428345,744.499939 1167.288208,730.647461 
	C1167.781372,728.259338 1167.036011,725.615540 1166.862671,723.089783 
	C1166.243408,723.021057 1165.624023,722.952393 1165.004761,722.883667 
	C1163.781006,724.770691 1162.569580,726.665894 1161.331177,728.543274 
	C1156.772583,735.454163 1152.585693,742.662720 1147.444092,749.109375 
	C1145.520996,751.520752 1141.365479,752.151794 1138.227905,753.594543 
	C1137.975952,750.472717 1137.052368,747.233276 1137.575073,744.247009 
	C1143.507568,710.353210 1149.761841,676.515625 1155.662598,642.616455 
	C1156.710571,636.596863 1157.093872,630.336853 1156.794556,624.236389 
	C1156.334229,614.858948 1150.336548,610.831116 1141.365601,613.558838 
	C1137.776245,614.650269 1134.183472,616.360474 1131.156738,618.564270 
	C1117.751343,628.325195 1108.429321,641.276123 1102.591675,656.740967 
	C1101.780029,658.890991 1101.169800,661.238831 1101.110596,663.511841 
	C1101.065063,665.268799 1102.027832,667.052002 1102.542358,668.823486 
	C1103.814087,667.496826 1105.315430,666.323242 1106.318726,664.817688 
	C1111.273315,657.383179 1115.754639,649.600464 1121.157471,642.515991 
	C1122.954590,640.159607 1126.996582,639.515198 1130.012207,638.088196 
	C1130.533936,641.335205 1131.960449,644.736328 1131.437378,647.805298 
	C1126.243164,678.282288 1120.506958,708.667847 1115.427246,739.163147 
	C1113.775269,749.081360 1112.695679,759.275635 1113.028564,769.288025 
	C1113.306519,777.651062 1119.450928,780.868591 1127.595459,778.741455 
	C1129.189575,778.325134 1130.693604,777.564270 1132.933960,776.628235 
M694.024902,923.337708 
	C691.071045,910.426514 688.117126,897.515320 685.178223,884.669434 
	C691.038208,881.342590 691.463928,879.900391 688.810364,873.068848 
	C681.213196,873.068848 673.644409,873.068848 665.857666,873.068848 
	C666.427185,876.669128 662.784790,880.294739 667.466187,883.273682 
	C669.401550,884.505249 671.112732,886.964294 671.761658,889.202576 
	C676.615417,905.945251 681.131287,922.785706 685.917358,939.548584 
	C686.309326,940.921387 687.836731,942.865967 688.979553,942.969604 
	C693.396606,943.370422 697.871643,943.132446 702.575745,943.132446 
	C706.400574,925.077148 710.127197,907.485596 713.925537,889.555481 
	C717.634521,907.499084 721.296631,925.215759 724.969421,942.984131 
	C730.537537,942.984131 735.664734,942.984131 740.931030,942.984131 
	C741.329285,941.813354 741.739807,940.734985 742.064880,939.631470 
	C747.038391,922.751221 751.979736,905.861389 757.001648,888.995544 
	C757.445618,887.504517 758.112854,885.224609 759.160095,884.907288 
	C766.035095,882.824097 765.178833,878.183594 763.558350,873.156616 
	C756.169739,873.156616 748.800171,873.156616 741.547119,873.156616 
	C740.265808,878.500000 739.595642,883.232117 746.056763,884.931458 
	C742.306519,899.788391 738.656189,914.249817 734.996277,928.749084 
	C731.006165,910.344238 727.014893,891.933777 723.053589,873.661621 
	C717.523315,873.661621 712.442932,873.661621 707.162170,873.661621 
	C703.207458,892.218811 699.312866,910.493835 695.329346,929.186401 
	C694.875488,927.310791 694.496277,925.743774 694.024902,923.337708 
M906.512939,872.737122 
	C902.569763,872.737122 898.626587,872.737122 894.830933,872.737122 
	C893.393433,879.430054 893.426636,879.397522 898.197021,884.265991 
	C898.775452,884.856506 898.989136,886.024475 898.992065,886.926086 
	C899.039551,901.553894 899.025635,916.181946 899.025635,930.627686 
	C892.821289,934.104675 892.612488,934.751038 894.838501,941.931213 
	C906.249512,941.931213 917.628662,942.895081 928.766052,941.666504 
	C940.440125,940.378784 948.695435,933.230103 951.010742,921.221558 
	C952.189575,915.107422 952.554199,908.642212 952.051819,902.435669 
	C950.729065,886.092896 940.923950,875.631104 924.961060,873.299011 
	C919.238647,872.462952 913.331970,872.887756 906.512939,872.737122 
M1200.951538,913.547302 
	C1200.951538,926.196411 1200.951538,938.845520 1200.951538,951.385498 
	C1195.081177,954.685181 1195.081177,954.685181 1196.556885,962.732788 
	C1204.938110,962.732788 1213.362915,962.732788 1222.057495,962.732788 
	C1221.146484,959.448792 1225.361572,954.844910 1220.223877,953.449402 
	C1213.771973,951.696838 1215.010620,947.543701 1215.240845,942.886108 
	C1217.800781,943.074951 1220.088257,943.337219 1222.381104,943.397339 
	C1234.497559,943.714844 1244.344360,936.979065 1246.293457,925.217346 
	C1247.509277,917.878845 1246.770508,910.006531 1245.663086,902.559082 
	C1244.772705,896.570984 1240.144531,893.067993 1233.995361,891.706665 
	C1226.934082,890.143372 1220.556030,891.834595 1214.310303,895.325134 
	C1213.972046,893.669434 1213.699951,892.336914 1213.350952,890.628235 
	C1207.484009,890.960327 1201.925903,891.274902 1196.571777,891.577942 
	C1195.242798,900.149170 1195.242798,900.149170 1200.951538,903.673523 
	C1200.951538,906.581909 1200.951538,909.575745 1200.951538,913.547302 
M824.603394,869.244873 
	C822.945312,869.377563 821.185730,869.204956 819.653198,869.714905 
	C817.395203,870.466309 814.103027,871.190918 813.392883,872.845886 
	C812.074951,875.917053 811.805115,879.696228 816.487793,881.404846 
	C817.385742,881.732422 817.941284,884.132812 817.951843,885.582153 
	C818.057678,900.076111 818.016174,914.571106 818.016174,929.065857 
	C818.016174,933.522705 818.016235,937.979492 818.016235,942.534912 
	C820.322754,942.534912 822.688538,943.268799 823.799011,942.399414 
	C827.353088,939.616638 830.428833,941.399170 833.824890,942.385498 
	C847.682739,946.410400 860.955505,939.483459 863.425232,925.878235 
	C864.726196,918.710876 863.982544,911.006226 863.135010,903.662720 
	C862.320679,896.605957 857.438110,892.175110 850.349426,891.798645 
	C844.413269,891.483398 838.403564,892.551147 832.161499,893.026733 
	C832.161499,885.987671 832.161499,878.045227 832.161499,869.661743 
	C829.761658,869.512268 827.635742,869.379883 824.603394,869.244873 
M1182.506470,894.857788 
	C1170.511230,888.283752 1154.963623,890.333618 1147.837402,899.428772 
	C1141.238647,907.851013 1140.646851,926.711060 1147.120728,935.285645 
	C1149.029907,937.814270 1151.881104,940.039917 1154.778076,941.343323 
	C1166.612061,946.667358 1181.008911,942.617554 1187.254761,932.984070 
	C1192.853882,924.348083 1193.350830,901.651978 1182.506470,894.857788 
M767.701782,908.351501 
	C767.513733,914.135193 766.687805,919.988281 767.308228,925.683899 
	C767.995117,931.988892 771.187744,937.494812 777.226196,940.385742 
	C787.042969,945.085510 796.876221,944.404053 806.478516,939.527039 
	C808.656372,938.420837 809.769775,936.873779 808.274292,934.291321 
	C807.400391,932.782288 806.973816,931.014221 806.348450,929.369202 
	C790.590637,935.439331 780.329041,931.010010 781.929871,920.577393 
	C788.666504,920.577393 795.488586,920.865845 802.263550,920.426880 
	C804.763306,920.264893 808.239502,919.057495 809.396851,917.175049 
	C813.662598,910.236511 808.171875,896.103210 800.513916,892.860229 
	C789.620361,888.246948 771.574402,892.349243 767.701782,908.351501 
M1094.340820,932.043945 
	C1083.957031,932.129883 1080.746216,929.585999 1080.433716,920.576660 
	C1087.406372,920.576660 1094.390015,920.878540 1101.322144,920.414001 
	C1103.772095,920.249756 1107.114258,918.835754 1108.286133,916.916138 
	C1111.686035,911.346497 1107.696533,898.012878 1102.177002,894.313843 
	C1090.703247,886.624451 1072.087769,892.473999 1067.365112,905.452454 
	C1064.621826,912.991577 1064.484863,920.756104 1066.748901,928.518005 
	C1068.953857,936.077698 1073.895508,941.363831 1081.547852,942.347961 
	C1087.802368,943.152344 1094.552368,942.875305 1100.660645,941.367676 
	C1108.937500,939.324890 1109.228149,937.232300 1104.798218,929.700684 
	C1101.578491,930.477844 1098.402954,931.244385 1094.340820,932.043945 
M990.878174,892.330750 
	C989.420837,891.998779 987.976624,891.586426 986.504211,891.347473 
	C973.794556,889.285400 961.646362,896.380310 959.319519,908.223572 
	C958.133972,914.257996 958.260132,920.812500 959.161072,926.930420 
	C960.376221,935.181885 965.749451,941.143677 974.065063,942.280396 
	C980.437073,943.151428 987.334351,942.744629 993.592834,941.230957 
	C1001.389587,939.345398 1001.482727,937.950989 998.218384,930.394775 
	C998.035217,929.970947 997.677979,929.622314 997.412720,929.254028 
	C982.935425,935.560791 972.560181,931.932495 973.473328,920.578186 
	C980.226257,920.578186 987.014343,920.609863 993.802002,920.564514 
	C997.081787,920.542603 1000.102478,920.036316 1001.462219,916.333862 
	C1004.449402,908.199829 999.615417,896.542114 990.878174,892.330750 
M1296.229736,907.289612 
	C1295.663574,901.780518 1293.961548,896.915710 1288.856934,893.881470 
	C1276.381470,886.465698 1257.723145,893.229309 1254.409302,907.209229 
	C1252.855469,913.764709 1253.174316,921.093018 1254.182983,927.841064 
	C1255.356567,935.692932 1260.888672,941.129089 1268.779053,942.300293 
	C1274.702026,943.179565 1281.121826,943.107910 1286.935303,941.776917 
	C1296.085327,939.682007 1296.391846,938.065430 1292.427246,929.508118 
	C1275.954834,934.819763 1268.110352,932.125122 1267.995117,920.580261 
	C1274.600586,920.580261 1281.215088,920.636353 1287.828125,920.564941 
	C1294.921265,920.488403 1296.979614,918.237732 1296.664795,911.100647 
	C1296.620972,910.105957 1296.450439,909.116760 1296.229736,907.289612 
M1044.673462,891.958801 
	C1042.852417,891.958801 1041.031494,891.958801 1039.164673,891.958801 
	C1037.445557,896.896973 1036.545532,901.326172 1042.820068,903.298523 
	C1039.911255,911.921204 1037.080444,920.313049 1034.086548,929.188293 
	C1031.062744,920.104065 1028.178711,911.439209 1025.249756,902.639465 
	C1031.290649,900.331116 1028.838257,896.085510 1028.201782,892.184570 
	C1020.346436,892.184570 1012.739258,892.184570 1005.424622,892.184570 
	C1003.339661,897.632629 1003.619751,901.805786 1010.046265,903.577393 
	C1011.050293,903.854248 1011.680359,905.925354 1012.251587,907.265564 
	C1016.868591,918.097107 1021.597046,928.886719 1025.907349,939.840271 
	C1027.198486,943.121094 1029.205078,943.555420 1031.996216,943.169556 
	C1034.937622,942.762878 1038.356689,944.708008 1040.176880,939.956116 
	C1044.445801,928.812256 1049.339844,917.906799 1054.053101,906.935791 
	C1054.615479,905.626526 1055.393677,903.757019 1056.466064,903.426453 
	C1062.979980,901.418518 1062.620850,897.176819 1060.502930,891.958801 
	C1055.590820,891.958801 1050.610596,891.958801 1044.673462,891.958801 
M1116.015015,880.693054 
	C1116.954224,882.181885 1118.687500,883.659180 1118.709106,885.161194 
	C1118.915894,899.472290 1118.856445,913.787659 1118.790039,928.101440 
	C1118.784424,929.314514 1118.466553,931.378784 1117.803345,931.604126 
	C1111.361206,933.792664 1113.652832,938.271301 1114.389282,942.403198 
	C1122.269531,942.403198 1129.838379,942.403198 1138.501831,942.403198 
	C1137.843750,939.022705 1138.186279,934.531555 1136.550903,933.630737 
	C1132.673828,931.494995 1132.960938,928.688293 1132.966919,925.405457 
	C1133.000488,906.954407 1132.983154,888.503296 1132.983154,869.124390 
	C1126.462158,869.506592 1120.319946,869.866577 1112.778564,870.308533 
	C1113.856934,874.424866 1114.616699,877.324707 1116.015015,880.693054 
M1307.316772,917.499023 
	C1307.316650,921.159241 1307.415405,924.823730 1307.258545,928.477234 
	C1307.208618,929.641663 1306.765259,931.521606 1306.016968,931.808167 
	C1299.838013,934.174683 1302.276489,938.485657 1303.176392,942.553833 
	C1312.783447,942.553833 1322.225098,942.553833 1331.896118,942.553833 
	C1332.150513,939.909119 1333.482910,936.164612 1332.410034,935.253906 
	C1329.544800,932.821838 1325.646240,931.607117 1321.704102,929.687439 
	C1321.704102,923.709961 1321.922241,917.228577 1321.619629,910.771667 
	C1321.446167,907.070068 1323.223755,905.543274 1326.351196,905.105652 
	C1329.747192,904.630493 1333.189819,904.489868 1336.623047,904.202454 
	C1336.623047,899.781860 1336.623047,895.553833 1336.623047,889.729126 
	C1330.670776,891.790039 1325.556763,893.560730 1320.330688,895.370178 
	C1320.262451,894.303772 1320.163086,892.753052 1320.066895,891.250671 
	C1315.279053,891.250671 1310.788696,890.980652 1306.365845,891.408630 
	C1304.966309,891.544006 1303.096802,893.314087 1302.592285,894.742371 
	C1301.758789,897.101685 1300.807251,900.241211 1304.216553,901.622986 
	C1307.132690,902.804749 1307.500977,904.837036 1307.354126,907.523376 
	C1307.191040,910.509216 1307.316772,913.510803 1307.316772,917.499023 
M1166.079712,573.528198 
	C1167.540283,564.387695 1169.000977,555.247131 1170.450073,546.178650 
	C1156.100220,542.653015 1147.221802,552.621277 1145.135010,562.568115 
	C1143.328125,571.180664 1142.096191,579.912231 1140.455566,588.561951 
	C1139.734131,592.366455 1141.509155,593.157410 1144.809814,593.169739 
	C1155.354126,593.209045 1162.617188,586.836426 1166.079712,573.528198 
z"/>
<path fill="#FCFCFC" opacity="1.000000" stroke="none" 
	d="
M718.779602,848.005981 
	C704.938721,848.833557 692.486877,846.510742 681.720337,837.821167 
	C674.215332,831.763916 669.182373,824.105530 666.270630,815.024048 
	C663.283630,805.707825 665.450256,797.642212 672.613708,790.943726 
	C677.530151,786.346375 682.918823,782.679993 690.308289,781.756104 
	C691.231323,787.204529 691.739136,792.466980 693.074829,797.510132 
	C694.726074,803.744446 696.713379,809.943726 699.200928,815.888123 
	C701.932251,822.414734 707.317505,826.220764 714.144043,828.026245 
	C731.528381,832.623779 746.057617,826.598938 754.682373,810.809753 
	C762.690125,796.150024 766.208496,779.970398 768.849915,763.750488 
	C779.173828,700.355042 789.059937,636.888306 799.110107,573.448303 
	C799.578735,570.490295 800.060425,567.534424 800.667358,563.760437 
	C784.065369,561.934326 767.650696,559.640625 751.156372,558.459656 
	C736.342163,557.398926 724.554016,564.241821 714.689697,574.953369 
	C712.948303,576.844299 710.207886,577.815369 707.928833,579.211182 
	C707.700500,576.429321 706.813293,573.512512 707.350891,570.887512 
	C710.797974,554.055359 722.723938,543.650574 741.704285,539.950012 
	C759.016357,536.574646 776.181030,538.647156 793.431763,540.423889 
	C806.155151,541.734314 818.972595,542.716980 832.026672,538.387756 
	C830.264282,545.067444 828.073486,551.301086 827.021667,557.721313 
	C822.824646,583.338257 819.103760,609.032715 814.980652,634.662231 
	C808.427856,675.395630 802.432678,716.239563 794.765991,756.765198 
	C790.002197,781.946045 780.158875,805.499390 762.751282,825.089539 
	C751.151550,838.143677 736.953064,846.436157 718.779602,848.005981 
z"/>
<path fill="#FCFCFC" opacity="1.000000" stroke="none" 
	d="
M1244.212524,671.192261 
	C1251.855103,660.756409 1258.682007,649.570435 1267.383179,640.107849 
	C1275.165527,631.644470 1284.698120,624.640564 1294.102173,617.889404 
	C1298.056396,615.050598 1303.569336,613.715393 1308.545166,613.113708 
	C1317.490967,612.031860 1323.335083,616.526245 1323.795532,625.524170 
	C1324.258667,634.573792 1323.867432,643.859985 1322.338013,652.783142 
	C1317.421265,681.468689 1311.792480,710.031982 1306.479492,738.650024 
	C1305.902588,741.757568 1305.119019,744.945496 1305.319580,748.038513 
	C1305.462891,750.244568 1306.563477,753.185974 1308.227539,754.251099 
	C1309.634766,755.151672 1313.108643,754.573059 1314.534546,753.339172 
	C1317.748657,750.558105 1320.748047,747.260925 1322.944702,743.634644 
	C1326.289185,738.113892 1328.795654,732.091431 1331.855225,726.387878 
	C1332.537720,725.115479 1334.038818,724.282227 1335.163086,723.246826 
	C1335.774902,724.647034 1336.989136,726.094604 1336.883423,727.438354 
	C1336.586060,731.216736 1336.184814,735.092285 1335.042969,738.680786 
	C1329.997070,754.539001 1320.286987,766.904297 1305.947998,775.362732 
	C1291.106567,784.117554 1280.188354,778.502869 1281.238647,761.476135 
	C1282.319336,743.957336 1285.749878,726.566650 1288.475830,709.170593 
	C1291.512573,689.791809 1295.428101,670.537292 1297.966431,651.098816 
	C1299.526611,639.151367 1293.300537,635.324341 1282.879517,641.848572 
	C1276.270752,645.986023 1270.197510,651.705383 1265.411133,657.895935 
	C1248.230103,680.117249 1237.485596,705.309753 1232.995483,733.113098 
	C1231.961548,739.516174 1230.696045,745.882324 1229.504150,752.259277 
	C1227.188232,764.649719 1219.011230,772.272522 1208.453125,777.865845 
	C1207.031860,778.618896 1205.296265,778.893616 1203.668579,779.118469 
	C1200.267456,779.588135 1198.620239,778.649231 1199.782104,774.690552 
	C1211.588501,734.467041 1216.365845,692.919067 1222.745728,651.677734 
	C1223.419678,647.320740 1223.301025,642.841187 1223.550049,638.418518 
	C1222.987061,638.027893 1222.423950,637.637268 1221.860962,637.246643 
	C1219.613770,638.827881 1216.759888,639.968445 1215.232178,642.072083 
	C1210.456421,648.648315 1206.301514,655.672058 1201.642456,662.338135 
	C1200.171265,664.443115 1197.015991,667.849060 1196.098389,667.432007 
	C1192.220581,665.669556 1194.085327,661.852905 1195.099243,659.140259 
	C1201.606812,641.730591 1212.227051,627.321228 1227.302124,616.309875 
	C1227.702026,616.017822 1228.169189,615.817688 1228.606079,615.576660 
	C1239.724731,609.440491 1247.468994,613.448364 1247.925781,626.062134 
	C1248.177490,633.014954 1247.530884,640.040710 1246.780396,646.978516 
	C1245.957764,654.583191 1244.549194,662.124512 1243.273071,670.387085 
	C1243.186646,671.657837 1243.223267,672.234802 1243.323364,673.815735 
	C1243.836304,672.302185 1244.024414,671.747253 1244.212524,671.192261 
z"/>
<path fill="#FCFCFC" opacity="1.000000" stroke="none" 
	d="
M839.117554,742.112061 
	C842.010681,696.481750 858.597107,657.949341 894.638672,629.361206 
	C913.701233,614.240845 935.576965,609.331238 959.511353,615.012085 
	C960.961670,615.356323 962.379517,615.855652 963.786621,616.355530 
	C964.397461,616.572693 964.942810,616.974426 965.350098,617.199585 
	C959.721802,644.473145 954.043884,671.597229 948.553955,698.759277 
	C945.918396,711.798950 943.583374,724.900757 941.240906,737.997375 
	C940.745361,740.768127 940.394226,743.691895 940.742676,746.448242 
	C941.050415,748.882263 942.063843,752.881897 943.410156,753.169067 
	C945.859192,753.691406 949.970459,752.844788 951.302429,751.034668 
	C956.288269,744.258728 960.445129,736.870972 964.879700,729.692261 
	C966.294373,727.402161 967.606201,725.048462 968.965027,722.723877 
	C969.579529,722.835571 970.194031,722.947266 970.808533,723.058960 
	C971.054688,724.995605 971.781921,727.012634 971.473450,728.856506 
	C967.996704,749.639832 956.794128,765.228882 939.010315,776.206848 
	C936.932068,777.489746 934.481384,778.393066 932.082581,778.891846 
	C924.468628,780.474976 919.873413,777.660278 917.875183,770.095642 
	C915.059570,759.436401 917.330322,748.947693 919.371765,738.479675 
	C920.755859,731.382324 922.131958,724.283325 922.565430,716.825623 
	C920.667603,719.858459 918.796631,722.908508 916.867432,725.921204 
	C906.756287,741.710510 895.448120,756.563904 880.562378,768.144958 
	C875.153564,772.352966 868.873901,775.896790 862.442078,778.227112 
	C853.007324,781.645569 845.004150,777.780701 842.423767,768.172852 
	C840.213440,759.943054 840.130920,751.141785 839.117554,742.112061 
M890.989502,740.490723 
	C916.060303,712.011719 930.025818,678.256409 937.796753,641.602661 
	C938.036255,640.473022 936.998108,638.402649 935.953430,637.778198 
	C928.614807,633.391052 920.718018,631.214111 912.102112,632.883850 
	C902.240234,634.795044 895.716492,641.380798 890.164490,649.052490 
	C878.552490,665.097595 872.071899,683.347595 867.968140,702.517029 
	C865.106018,715.886780 862.652588,729.351807 864.957153,743.096252 
	C866.204529,750.536072 870.692810,753.270752 877.546692,750.045105 
	C882.242004,747.835510 886.202271,744.064026 890.989502,740.490723 
z"/>
<path fill="#FCFCFC" opacity="1.000000" stroke="none" 
	d="
M1024.616943,634.003052 
	C1013.511963,634.002930 1002.870178,634.002930 991.168762,634.002930 
	C993.722351,625.051086 1000.083496,619.808411 1007.075378,617.507996 
	C1014.215881,615.158508 1022.444214,616.115173 1030.670898,615.594421 
	C1031.758057,608.880249 1032.783325,601.852173 1034.050903,594.868103 
	C1036.546143,581.119751 1044.517334,571.800537 1057.488647,566.835510 
	C1059.644775,566.010315 1062.163696,566.132996 1063.915161,565.898071 
	C1060.012817,582.697937 1056.242676,598.928406 1052.249023,616.121094 
	C1063.052368,616.121094 1072.454346,616.028442 1081.852051,616.187134 
	C1084.161865,616.226135 1086.457886,617.084839 1088.760254,617.566711 
	C1087.525635,619.627441 1086.616455,621.998535 1084.999512,623.694763 
	C1078.232666,630.793152 1070.619873,635.987244 1059.979126,634.076416 
	C1057.253296,633.586914 1054.364746,634.002930 1051.224365,634.002930 
	C1048.487671,650.919861 1045.758057,667.611694 1043.093018,684.313782 
	C1040.209717,702.385437 1037.312012,720.455505 1034.596191,738.552673 
	C1034.007446,742.475952 1033.813110,746.533325 1034.057373,750.490601 
	C1034.509033,757.807495 1039.494629,760.724792 1046.308960,757.643372 
	C1053.578247,754.356140 1058.357056,748.407166 1062.208252,741.610718 
	C1063.214844,739.834290 1064.431396,738.176819 1065.975952,735.815674 
	C1068.816040,740.319885 1067.729370,744.075623 1066.398315,747.484924 
	C1061.223755,760.739014 1052.237427,770.721436 1039.366455,776.840820 
	C1036.177612,778.356934 1032.339722,779.043640 1028.775391,779.133301 
	C1018.016968,779.403870 1011.444580,773.145081 1011.164246,760.617676 
	C1010.905334,749.044800 1011.690063,737.319153 1013.362976,725.857544 
	C1017.807068,695.410278 1022.978882,665.069214 1027.918335,634.331177 
	C1026.888062,634.212097 1025.984009,634.107666 1024.616943,634.003052 
z"/>
<path fill="#FBFBFB" opacity="1.000000" stroke="none" 
	d="
M1132.586670,776.795288 
	C1130.693604,777.564270 1129.189575,778.325134 1127.595459,778.741455 
	C1119.450928,780.868591 1113.306519,777.651062 1113.028564,769.288025 
	C1112.695679,759.275635 1113.775269,749.081360 1115.427246,739.163147 
	C1120.506958,708.667847 1126.243164,678.282288 1131.437378,647.805298 
	C1131.960449,644.736328 1130.533936,641.335205 1130.012207,638.088135 
	C1126.996582,639.515198 1122.954590,640.159607 1121.157471,642.515991 
	C1115.754639,649.600464 1111.273315,657.383179 1106.318726,664.817688 
	C1105.315430,666.323242 1103.814087,667.496826 1102.542358,668.823486 
	C1102.027832,667.052002 1101.065063,665.268799 1101.110596,663.511841 
	C1101.169800,661.238831 1101.780029,658.890991 1102.591675,656.740967 
	C1108.429321,641.276123 1117.751343,628.325195 1131.156738,618.564270 
	C1134.183472,616.360474 1137.776245,614.650269 1141.365601,613.558838 
	C1150.336548,610.831116 1156.334229,614.858948 1156.794556,624.236389 
	C1157.093872,630.336853 1156.710571,636.596863 1155.662598,642.616455 
	C1149.761841,676.515625 1143.507568,710.353210 1137.575073,744.247009 
	C1137.052368,747.233276 1137.975952,750.472717 1138.227905,753.594543 
	C1141.365479,752.151794 1145.520996,751.520752 1147.444092,749.109375 
	C1152.585693,742.662720 1156.772583,735.454163 1161.331177,728.543274 
	C1162.569580,726.665894 1163.781006,724.770691 1165.004761,722.883667 
	C1165.624023,722.952393 1166.243408,723.021057 1166.862671,723.089783 
	C1167.036011,725.615540 1167.781372,728.259338 1167.288208,730.647461 
	C1164.428345,744.499939 1156.434692,755.524536 1146.851318,765.392822 
	C1142.727783,769.638794 1137.603516,772.912720 1132.586670,776.795288 
z"/>
<path fill="#FAFAFA" opacity="1.000000" stroke="none" 
	d="
M694.070984,923.757202 
	C694.496277,925.743774 694.875488,927.310791 695.329346,929.186401 
	C699.312866,910.493835 703.207458,892.218811 707.162170,873.661621 
	C712.442932,873.661621 717.523315,873.661621 723.053589,873.661621 
	C727.014893,891.933777 731.006165,910.344238 734.996277,928.749084 
	C738.656189,914.249817 742.306519,899.788391 746.056763,884.931458 
	C739.595642,883.232117 740.265808,878.500000 741.547119,873.156616 
	C748.800171,873.156616 756.169739,873.156616 763.558350,873.156616 
	C765.178833,878.183594 766.035095,882.824097 759.160095,884.907288 
	C758.112854,885.224609 757.445618,887.504517 757.001648,888.995544 
	C751.979736,905.861389 747.038391,922.751221 742.064880,939.631470 
	C741.739807,940.734985 741.329285,941.813354 740.931030,942.984131 
	C735.664734,942.984131 730.537537,942.984131 724.969421,942.984131 
	C721.296631,925.215759 717.634521,907.499084 713.925537,889.555481 
	C710.127197,907.485596 706.400574,925.077148 702.575745,943.132446 
	C697.871643,943.132446 693.396606,943.370422 688.979553,942.969604 
	C687.836731,942.865967 686.309326,940.921387 685.917358,939.548584 
	C681.131287,922.785706 676.615417,905.945251 671.761658,889.202576 
	C671.112732,886.964294 669.401550,884.505249 667.466187,883.273682 
	C662.784790,880.294739 666.427185,876.669128 665.857666,873.068848 
	C673.644409,873.068848 681.213196,873.068848 688.810364,873.068848 
	C691.463928,879.900391 691.038208,881.342590 685.178223,884.669434 
	C688.117126,897.515320 691.071045,910.426514 694.070984,923.757202 
z"/>
<path fill="#F9F9F9" opacity="1.000000" stroke="none" 
	d="
M907.011169,872.737122 
	C913.331970,872.887756 919.238647,872.462952 924.961060,873.299011 
	C940.923950,875.631104 950.729065,886.092896 952.051819,902.435669 
	C952.554199,908.642212 952.189575,915.107422 951.010742,921.221558 
	C948.695435,933.230103 940.440125,940.378784 928.766052,941.666504 
	C917.628662,942.895081 906.249512,941.931213 894.838501,941.931213 
	C892.612488,934.751038 892.821289,934.104675 899.025635,930.627686 
	C899.025635,916.181946 899.039551,901.553894 898.992065,886.926086 
	C898.989136,886.024475 898.775452,884.856506 898.197021,884.265991 
	C893.426636,879.397522 893.393433,879.430054 894.830933,872.737122 
	C898.626587,872.737122 902.569763,872.737122 907.011169,872.737122 
M917.389771,883.829285 
	C914.709045,883.413635 913.658203,884.290649 913.700317,887.255981 
	C913.870056,899.217163 913.770569,911.182068 913.770447,923.145630 
	C913.770447,925.895325 913.770447,928.645020 913.770447,931.543335 
	C917.134216,931.543335 919.785828,931.744568 922.397278,931.506165 
	C930.746338,930.743774 935.482910,927.018494 936.456970,918.716125 
	C937.238220,912.057251 937.167480,905.063049 936.025818,898.468567 
	C934.277649,888.370972 928.693359,884.335876 917.389771,883.829285 
z"/>
<path fill="#FCFCFC" opacity="1.000000" stroke="none" 
	d="
M1200.951538,913.058472 
	C1200.951538,909.575745 1200.951538,906.581909 1200.951538,903.673523 
	C1195.242798,900.149170 1195.242798,900.149170 1196.571777,891.577942 
	C1201.925903,891.274902 1207.484009,890.960327 1213.350952,890.628235 
	C1213.699951,892.336914 1213.972046,893.669434 1214.310303,895.325134 
	C1220.556030,891.834595 1226.934082,890.143372 1233.995361,891.706665 
	C1240.144531,893.067993 1244.772705,896.570984 1245.663086,902.559082 
	C1246.770508,910.006531 1247.509277,917.878845 1246.293457,925.217346 
	C1244.344360,936.979065 1234.497559,943.714844 1222.381104,943.397339 
	C1220.088257,943.337219 1217.800781,943.074951 1215.240845,942.886108 
	C1215.010620,947.543701 1213.771973,951.696838 1220.223877,953.449402 
	C1225.361572,954.844910 1221.146484,959.448792 1222.057495,962.732788 
	C1213.362915,962.732788 1204.938110,962.732788 1196.556885,962.732788 
	C1195.081177,954.685181 1195.081177,954.685181 1200.951538,951.385498 
	C1200.951538,938.845520 1200.951538,926.196411 1200.951538,913.058472 
M1230.454712,927.770325 
	C1231.150269,921.608154 1232.345337,915.440552 1232.278442,909.286682 
	C1232.254150,907.041321 1229.390137,903.130676 1227.538818,902.954834 
	C1223.705444,902.590637 1219.669067,904.164490 1215.759155,905.117737 
	C1215.375000,905.211304 1215.098145,906.526917 1215.093872,907.277161 
	C1215.047363,915.534729 1215.064697,923.792725 1215.064697,931.899841 
	C1222.841431,934.251648 1225.763794,933.525269 1230.454712,927.770325 
z"/>
<path fill="#FBFBFB" opacity="1.000000" stroke="none" 
	d="
M825.056641,869.246155 
	C827.635742,869.379883 829.761658,869.512268 832.161499,869.661743 
	C832.161499,878.045227 832.161499,885.987671 832.161499,893.026733 
	C838.403564,892.551147 844.413269,891.483398 850.349426,891.798645 
	C857.438110,892.175110 862.320679,896.605957 863.135010,903.662720 
	C863.982544,911.006226 864.726196,918.710876 863.425232,925.878235 
	C860.955505,939.483459 847.682739,946.410400 833.824890,942.385498 
	C830.428833,941.399170 827.353088,939.616638 823.799011,942.399414 
	C822.688538,943.268799 820.322754,942.534912 818.016235,942.534912 
	C818.016235,937.979492 818.016174,933.522705 818.016174,929.065857 
	C818.016174,914.571106 818.057678,900.076111 817.951843,885.582153 
	C817.941284,884.132812 817.385742,881.732422 816.487793,881.404846 
	C811.805115,879.696228 812.074951,875.917053 813.392883,872.845886 
	C814.103027,871.190918 817.395203,870.466309 819.653198,869.714905 
	C821.185730,869.204956 822.945312,869.377563 825.056641,869.246155 
M832.153809,922.414673 
	C832.154175,924.577087 832.022339,926.751160 832.212891,928.896729 
	C832.302551,929.906311 832.736084,931.271423 833.484802,931.774292 
	C838.641663,935.238098 847.199890,932.983643 848.303101,927.041382 
	C849.543396,920.360840 849.470703,913.240601 848.713867,906.451599 
	C848.177979,901.644287 843.401306,901.424133 839.494080,902.272522 
	C835.972290,903.037231 831.658142,903.315369 832.091797,908.966187 
	C832.408997,913.100281 832.153809,917.278320 832.153809,922.414673 
z"/>
<path fill="#FAFAFA" opacity="1.000000" stroke="none" 
	d="
M1182.825806,895.044861 
	C1193.350830,901.651978 1192.853882,924.348083 1187.254761,932.984070 
	C1181.008911,942.617554 1166.612061,946.667358 1154.778076,941.343323 
	C1151.881104,940.039917 1149.029907,937.814270 1147.120728,935.285645 
	C1140.646851,926.711060 1141.238647,907.851013 1147.837402,899.428772 
	C1154.963623,890.333618 1170.511230,888.283752 1182.825806,895.044861 
M1176.057617,924.292725 
	C1175.814453,918.882751 1176.072876,913.388062 1175.177124,908.088440 
	C1174.393677,903.453979 1170.726318,901.331482 1165.937500,901.610229 
	C1161.199829,901.885925 1158.516602,904.756165 1158.075562,909.122803 
	C1157.581665,914.014404 1157.454956,919.039246 1157.995605,923.914307 
	C1158.643066,929.750732 1161.738281,932.680847 1166.188599,933.020081 
	C1171.234619,933.404663 1173.722778,931.387268 1176.057617,924.292725 
z"/>
<path fill="#F9F9F9" opacity="1.000000" stroke="none" 
	d="
M767.802002,907.957825 
	C771.574402,892.349243 789.620361,888.246948 800.513916,892.860229 
	C808.171875,896.103210 813.662598,910.236511 809.396851,917.175049 
	C808.239502,919.057495 804.763306,920.264893 802.263550,920.426880 
	C795.488586,920.865845 788.666504,920.577393 781.929871,920.577393 
	C780.329041,931.010010 790.590637,935.439331 806.348450,929.369202 
	C806.973816,931.014221 807.400391,932.782288 808.274292,934.291321 
	C809.769775,936.873779 808.656372,938.420837 806.478516,939.527039 
	C796.876221,944.404053 787.042969,945.085510 777.226196,940.385742 
	C771.187744,937.494812 767.995117,931.988892 767.308228,925.683899 
	C766.687805,919.988281 767.513733,914.135193 767.802002,907.957825 
M793.058655,911.795410 
	C794.511230,911.134216 796.793213,910.829468 797.259460,909.744385 
	C798.608276,906.605896 795.969238,902.633118 792.521912,901.801880 
	C786.199890,900.277527 782.275024,903.903015 781.817993,911.828003 
	C785.268555,911.828003 788.712524,911.828003 793.058655,911.795410 
z"/>
<path fill="#F8F8F8" opacity="1.000000" stroke="none" 
	d="
M1094.784180,932.027466 
	C1098.402954,931.244385 1101.578491,930.477844 1104.798218,929.700684 
	C1109.228149,937.232300 1108.937500,939.324890 1100.660645,941.367676 
	C1094.552368,942.875305 1087.802368,943.152344 1081.547852,942.347961 
	C1073.895508,941.363831 1068.953857,936.077698 1066.748901,928.518005 
	C1064.484863,920.756104 1064.621826,912.991577 1067.365112,905.452454 
	C1072.087769,892.473999 1090.703247,886.624451 1102.177002,894.313843 
	C1107.696533,898.012878 1111.686035,911.346497 1108.286133,916.916138 
	C1107.114258,918.835754 1103.772095,920.249756 1101.322144,920.414001 
	C1094.390015,920.878540 1087.406372,920.576660 1080.433716,920.576660 
	C1080.746216,929.585999 1083.957031,932.129883 1094.784180,932.027466 
M1087.895874,901.637207 
	C1081.889893,902.402588 1080.989258,906.944275 1080.276611,911.581299 
	C1085.540771,911.581299 1090.644775,911.581299 1095.677490,911.581299 
	C1096.719482,904.279053 1095.312256,902.376160 1087.895874,901.637207 
z"/>
<path fill="#F9F9F9" opacity="1.000000" stroke="none" 
	d="
M991.227173,892.512146 
	C999.615417,896.542114 1004.449402,908.199829 1001.462219,916.333862 
	C1000.102478,920.036316 997.081787,920.542603 993.802002,920.564514 
	C987.014343,920.609863 980.226257,920.578186 973.473328,920.578186 
	C972.560181,931.932495 982.935425,935.560791 997.412720,929.254028 
	C997.677979,929.622314 998.035217,929.970947 998.218384,930.394775 
	C1001.482727,937.950989 1001.389587,939.345398 993.592834,941.230957 
	C987.334351,942.744629 980.437073,943.151428 974.065063,942.280396 
	C965.749451,941.143677 960.376221,935.181885 959.161072,926.930420 
	C958.260132,920.812500 958.133972,914.257996 959.319519,908.223572 
	C961.646362,896.380310 973.794556,889.285400 986.504211,891.347473 
	C987.976624,891.586426 989.420837,891.998779 991.227173,892.512146 
M985.686401,902.264587 
	C977.234924,900.415527 973.634460,903.174866 973.296631,911.626831 
	C978.366333,911.626831 983.430115,911.626831 990.164124,911.626831 
	C988.619324,908.054138 987.480957,905.421509 985.686401,902.264587 
z"/>
<path fill="#F9F9F9" opacity="1.000000" stroke="none" 
	d="
M1296.284180,907.707336 
	C1296.450439,909.116760 1296.620972,910.105957 1296.664795,911.100647 
	C1296.979614,918.237732 1294.921265,920.488403 1287.828125,920.564941 
	C1281.215088,920.636353 1274.600586,920.580261 1267.995117,920.580261 
	C1268.110352,932.125122 1275.954834,934.819763 1292.427246,929.508118 
	C1296.391846,938.065430 1296.085327,939.682007 1286.935303,941.776917 
	C1281.121826,943.107910 1274.702026,943.179565 1268.779053,942.300293 
	C1260.888672,941.129089 1255.356567,935.692932 1254.182983,927.841064 
	C1253.174316,921.093018 1252.855469,913.764709 1254.409302,907.209229 
	C1257.723145,893.229309 1276.381470,886.465698 1288.856934,893.881470 
	C1293.961548,896.915710 1295.663574,901.780518 1296.284180,907.707336 
M1268.035156,909.100037 
	C1267.613037,910.990051 1267.713623,912.314392 1270.309326,912.067383 
	C1272.949219,911.816162 1275.645874,912.099915 1278.270874,911.773315 
	C1280.383667,911.510498 1283.850342,913.111450 1283.788208,908.857117 
	C1283.738770,905.466614 1282.510742,902.694763 1278.773438,901.797424 
	C1273.695068,900.578064 1270.671265,902.423218 1268.035156,909.100037 
z"/>
<path fill="#FBFBFB" opacity="1.000000" stroke="none" 
	d="
M1045.151855,891.958801 
	C1050.610596,891.958801 1055.590820,891.958801 1060.502930,891.958801 
	C1062.620850,897.176819 1062.979980,901.418518 1056.466064,903.426453 
	C1055.393677,903.757019 1054.615479,905.626526 1054.053101,906.935791 
	C1049.339844,917.906799 1044.445801,928.812256 1040.176880,939.956116 
	C1038.356689,944.708008 1034.937622,942.762878 1031.996216,943.169556 
	C1029.205078,943.555420 1027.198486,943.121094 1025.907349,939.840271 
	C1021.597046,928.886719 1016.868591,918.097107 1012.251587,907.265564 
	C1011.680359,905.925354 1011.050293,903.854248 1010.046265,903.577393 
	C1003.619751,901.805786 1003.339661,897.632629 1005.424622,892.184570 
	C1012.739258,892.184570 1020.346436,892.184570 1028.201782,892.184570 
	C1028.838257,896.085510 1031.290649,900.331116 1025.249756,902.639465 
	C1028.178711,911.439209 1031.062744,920.104065 1034.086548,929.188293 
	C1037.080444,920.313049 1039.911255,911.921204 1042.820068,903.298523 
	C1036.545532,901.326172 1037.445557,896.896973 1039.164673,891.958801 
	C1041.031494,891.958801 1042.852417,891.958801 1045.151855,891.958801 
z"/>
<path fill="#FBFBFB" opacity="1.000000" stroke="none" 
	d="
M1115.695679,880.458801 
	C1114.616699,877.324707 1113.856934,874.424866 1112.778564,870.308533 
	C1120.319946,869.866577 1126.462158,869.506592 1132.983154,869.124390 
	C1132.983154,888.503296 1133.000488,906.954407 1132.966919,925.405457 
	C1132.960938,928.688293 1132.673828,931.494995 1136.550903,933.630737 
	C1138.186279,934.531555 1137.843750,939.022705 1138.501831,942.403198 
	C1129.838379,942.403198 1122.269531,942.403198 1114.389282,942.403198 
	C1113.652832,938.271301 1111.361206,933.792664 1117.803345,931.604126 
	C1118.466553,931.378784 1118.784424,929.314514 1118.790039,928.101440 
	C1118.856445,913.787659 1118.915894,899.472290 1118.709106,885.161194 
	C1118.687500,883.659180 1116.954224,882.181885 1115.695679,880.458801 
z"/>
<path fill="#F5F5F5" opacity="1.000000" stroke="none" 
	d="
M1307.316772,917.002258 
	C1307.316772,913.510803 1307.191040,910.509216 1307.354126,907.523376 
	C1307.500977,904.837036 1307.132690,902.804749 1304.216553,901.622986 
	C1300.807251,900.241211 1301.758789,897.101685 1302.592285,894.742371 
	C1303.096802,893.314087 1304.966309,891.544006 1306.365845,891.408630 
	C1310.788696,890.980652 1315.279053,891.250671 1320.066895,891.250671 
	C1320.163086,892.753052 1320.262451,894.303772 1320.330688,895.370178 
	C1325.556763,893.560730 1330.670776,891.790039 1336.623047,889.729126 
	C1336.623047,895.553833 1336.623047,899.781860 1336.623047,904.202454 
	C1333.189819,904.489868 1329.747192,904.630493 1326.351196,905.105652 
	C1323.223755,905.543274 1321.446167,907.070068 1321.619629,910.771667 
	C1321.922241,917.228577 1321.704102,923.709961 1321.704102,929.687439 
	C1325.646240,931.607117 1329.544800,932.821838 1332.410034,935.253906 
	C1333.482910,936.164612 1332.150513,939.909119 1331.896118,942.553833 
	C1322.225098,942.553833 1312.783447,942.553833 1303.176392,942.553833 
	C1302.276489,938.485657 1299.838013,934.174683 1306.016968,931.808167 
	C1306.765259,931.521606 1307.208618,929.641663 1307.258545,928.477234 
	C1307.415405,924.823730 1307.316650,921.159241 1307.316772,917.002258 
z"/>
<path fill="#FBFBFB" opacity="1.000000" stroke="none" 
	d="
M1166.032959,573.941284 
	C1162.617188,586.836426 1155.354126,593.209045 1144.809814,593.169739 
	C1141.509155,593.157410 1139.734131,592.366455 1140.455566,588.561951 
	C1142.096191,579.912231 1143.328125,571.180664 1145.135010,562.568115 
	C1147.221802,552.621277 1156.100220,542.653015 1170.450073,546.178650 
	C1169.000977,555.247131 1167.540283,564.387695 1166.032959,573.941284 
z"/>
<path fill="#020202" opacity="1.000000" stroke="none" 
	d="
M1244.019287,671.023438 
	C1244.024414,671.747253 1243.836304,672.302185 1243.323364,673.815735 
	C1243.223267,672.234802 1243.186646,671.657837 1243.289673,670.804749 
	C1243.561401,670.637268 1243.693726,670.745911 1244.019287,671.023438 
z"/>
<path fill="#020202" opacity="1.000000" stroke="none" 
	d="
M890.740295,740.740723 
	C886.202271,744.064026 882.242004,747.835510 877.546692,750.045105 
	C870.692810,753.270752 866.204529,750.536072 864.957153,743.096252 
	C862.652588,729.351807 865.106018,715.886780 867.968140,702.517029 
	C872.071899,683.347595 878.552490,665.097595 890.164490,649.052490 
	C895.716492,641.380798 902.240234,634.795044 912.102112,632.883850 
	C920.718018,631.214111 928.614807,633.391052 935.953430,637.778198 
	C936.998108,638.402649 938.036255,640.473022 937.796753,641.602661 
	C930.025818,678.256409 916.060303,712.011719 890.740295,740.740723 
z"/>
<path fill="#020202" opacity="1.000000" stroke="none" 
	d="
M917.856934,883.830688 
	C928.693359,884.335876 934.277649,888.370972 936.025818,898.468567 
	C937.167480,905.063049 937.238220,912.057251 936.456970,918.716125 
	C935.482910,927.018494 930.746338,930.743774 922.397278,931.506165 
	C919.785828,931.744568 917.134216,931.543335 913.770447,931.543335 
	C913.770447,928.645020 913.770447,925.895325 913.770447,923.145630 
	C913.770569,911.182068 913.870056,899.217163 913.700317,887.255981 
	C913.658203,884.290649 914.709045,883.413635 917.856934,883.830688 
z"/>
<path fill="#060606" opacity="1.000000" stroke="none" 
	d="
M1230.260742,928.100220 
	C1225.763794,933.525269 1222.841431,934.251648 1215.064697,931.899841 
	C1215.064697,923.792725 1215.047363,915.534729 1215.093872,907.277161 
	C1215.098145,906.526917 1215.375000,905.211304 1215.759155,905.117737 
	C1219.669067,904.164490 1223.705444,902.590637 1227.538818,902.954834 
	C1229.390137,903.130676 1232.254150,907.041321 1232.278442,909.286682 
	C1232.345337,915.440552 1231.150269,921.608154 1230.260742,928.100220 
z"/>
<path fill="#060606" opacity="1.000000" stroke="none" 
	d="
M832.153809,921.925720 
	C832.153809,917.278320 832.408997,913.100281 832.091797,908.966187 
	C831.658142,903.315369 835.972290,903.037231 839.494080,902.272522 
	C843.401306,901.424133 848.177979,901.644287 848.713867,906.451599 
	C849.470703,913.240601 849.543396,920.360840 848.303101,927.041382 
	C847.199890,932.983643 838.641663,935.238098 833.484802,931.774292 
	C832.736084,931.271423 832.302551,929.906311 832.212891,928.896729 
	C832.022339,926.751160 832.154175,924.577087 832.153809,921.925720 
z"/>
<path fill="#060606" opacity="1.000000" stroke="none" 
	d="
M1176.002197,924.700317 
	C1173.722778,931.387268 1171.234619,933.404663 1166.188599,933.020081 
	C1161.738281,932.680847 1158.643066,929.750732 1157.995605,923.914307 
	C1157.454956,919.039246 1157.581665,914.014404 1158.075562,909.122803 
	C1158.516602,904.756165 1161.199829,901.885925 1165.937500,901.610229 
	C1170.726318,901.331482 1174.393677,903.453979 1175.177124,908.088440 
	C1176.072876,913.388062 1175.814453,918.882751 1176.002197,924.700317 
z"/>
<path fill="#0D0D0D" opacity="1.000000" stroke="none" 
	d="
M792.607544,911.811707 
	C788.712524,911.828003 785.268555,911.828003 781.817993,911.828003 
	C782.275024,903.903015 786.199890,900.277527 792.521912,901.801880 
	C795.969238,902.633118 798.608276,906.605896 797.259460,909.744385 
	C796.793213,910.829468 794.511230,911.134216 792.607544,911.811707 
z"/>
<path fill="#060606" opacity="1.000000" stroke="none" 
	d="
M1088.269409,901.591553 
	C1095.312256,902.376160 1096.719482,904.279053 1095.677490,911.581299 
	C1090.644775,911.581299 1085.540771,911.581299 1080.276611,911.581299 
	C1080.989258,906.944275 1081.889893,902.402588 1088.269409,901.591553 
z"/>
<path fill="#0D0D0D" opacity="1.000000" stroke="none" 
	d="
M986.014526,902.526733 
	C987.480957,905.421509 988.619324,908.054138 990.164124,911.626831 
	C983.430115,911.626831 978.366333,911.626831 973.296631,911.626831 
	C973.634460,903.174866 977.234924,900.415527 986.014526,902.526733 
z"/>
<path fill="#0D0D0D" opacity="1.000000" stroke="none" 
	d="
M1268.125244,908.688721 
	C1270.671265,902.423218 1273.695068,900.578064 1278.773438,901.797424 
	C1282.510742,902.694763 1283.738770,905.466614 1283.788208,908.857117 
	C1283.850342,913.111450 1280.383667,911.510498 1278.270874,911.773315 
	C1275.645874,912.099915 1272.949219,911.816162 1270.309326,912.067383 
	C1267.713623,912.314392 1267.613037,910.990051 1268.125244,908.688721 
z"/>
</svg>